P3
# Created by IrfanView
8 8
255
154 154 154 154 154 154 154 154 154 154 154 154 154 154 154 154 154 154 154 154 154 154 154 154 154 154 154 3 241 242 3 241 242 3 241 242 3 241 242 3 241 242 3 241 242 154 154 154 154 154 154 3 241 242 3 241 242 3 241 242 3 241 242 3 241 242 3 241 242 154 154 154 154 154 154 3 241 242 3 241 242 3 241 242 3 241 242 3 241 242 3 241 242 154 154 154 154 154 154 3 241 242 3 241 242 3 241 242 3 241 242 3 241 242 3 241 242 154 154 154 154 154 154 3 241 242 3 241 242 3 241 242 3 241 242 3 241 242 3 241 242 154 154 154 154 154 154 3 241 242 3 241 242 3 241 242 3 241 242 3 241 242 3 241 242 154 154 154 154 154 154 154 154 154 154 154 154 154 154 154 154 154 154 154 154 154 154 154 154 154 154 154 